<svg width="131" height="131" viewBox="0 0 131 131" fill="none" xmlns="http://www.w3.org/2000/svg">
<path fill-rule="evenodd" clip-rule="evenodd" d="M39.3 0H91.7C113.374 0 131 17.6261 131 39.3V91.7C131 113.374 113.374 131 91.7 131H6.55C4.81283 131 3.14681 130.31 1.91845 129.082C0.690087 127.853 0 126.187 0 124.45V39.3C0 17.6261 17.6261 0 39.3 0ZM78.6209 48.3458C79.0503 49.3 79.3127 50.4094 79.4082 51.6738H99.5191C99.7576 47.9999 99.2447 44.6242 97.9803 41.5467C96.7398 38.4693 94.8671 35.8093 92.3622 33.5668C89.8573 31.3004 86.8394 29.5589 83.3087 28.3422C79.7779 27.1017 75.8536 26.4814 71.5356 26.4814C66.5973 26.4814 61.826 27.3164 57.2218 28.9864C52.6175 30.6325 48.4068 33.0777 44.5898 36.3222C40.7728 39.5428 37.5403 43.491 34.8922 48.1669C32.268 52.8427 30.4549 58.2104 29.453 64.2699C28.1886 71.9994 28.5941 78.6672 30.6696 84.2735C32.769 89.8797 36.264 94.1977 41.1545 97.2275C46.0451 100.257 52.0449 101.772 59.1541 101.772C65.5715 101.772 71.464 100.52 76.8317 98.0147C82.1994 95.4859 86.6844 91.8598 90.2867 87.1362C93.9128 82.3888 96.2746 76.6752 97.372 69.9954L99.0181 59.8326H66.5257L64.2355 74.0033H77.488C77.1205 76.0483 76.3053 77.8375 75.0425 79.371C73.7065 80.9932 71.9292 82.2457 69.7106 83.1284C67.4919 84.011 64.8558 84.4524 61.8022 84.4524C58.3907 84.4524 55.683 83.6413 53.6791 82.019C51.699 80.3968 50.4108 78.0589 49.8144 75.0053C49.218 71.9517 49.2776 68.2778 49.9933 63.9836C50.6851 59.7372 51.9495 56.111 53.7865 53.1051C55.6472 50.0992 57.9494 47.7971 60.6929 46.1987C63.4363 44.6003 66.478 43.8012 69.8179 43.8012C71.3686 43.8012 72.7165 43.9801 73.8616 44.3379C75.0305 44.6719 76.0086 45.1848 76.7959 45.8767C77.5832 46.5446 78.1915 47.3677 78.6209 48.3458Z" fill="black"/>
</svg>
