<svg width="146" height="39" viewBox="0 0 146 39" fill="none" xmlns="http://www.w3.org/2000/svg">
<path d="M65.9695 15.3089C65.8487 14.8615 65.6712 14.4673 65.4368 14.1264C65.2024 13.7784 64.9148 13.4837 64.5739 13.2422C64.233 13.0007 63.8423 12.8196 63.402 12.6989C62.9616 12.571 62.4787 12.5071 61.9531 12.5071C60.8949 12.5071 59.9787 12.7628 59.2045 13.2741C58.4375 13.7855 57.8445 14.5312 57.4254 15.5114C57.0064 16.4844 56.7969 17.6669 56.7969 19.0589C56.7969 20.4581 56.9993 21.6513 57.4041 22.6385C57.8089 23.6257 58.3949 24.3786 59.1619 24.897C59.929 25.4155 60.8594 25.6747 61.9531 25.6747C62.919 25.6747 63.7358 25.5185 64.4034 25.206C65.0781 24.8864 65.5895 24.4354 65.9375 23.853C66.2855 23.2706 66.4595 22.5852 66.4595 21.7969L67.4396 21.9141H62.1342V18.0682H71.5412V20.9553C71.5412 22.9084 71.1257 24.581 70.2947 25.973C69.4709 27.3651 68.3345 28.4339 66.8857 29.1797C65.4439 29.9254 63.7855 30.2983 61.9105 30.2983C59.8295 30.2983 58.0007 29.8473 56.424 28.9453C54.8473 28.0433 53.6186 26.7578 52.7379 25.0888C51.8572 23.4126 51.4169 21.424 51.4169 19.1229C51.4169 17.3331 51.6832 15.7457 52.2159 14.3608C52.7486 12.9687 53.4908 11.7898 54.4425 10.8239C55.4013 9.85795 56.5092 9.12642 57.7663 8.62926C59.0305 8.1321 60.3906 7.88352 61.8466 7.88352C63.1108 7.88352 64.2862 8.06463 65.3729 8.42685C66.4666 8.78906 67.4325 9.30043 68.2706 9.96094C69.1158 10.6214 69.8011 11.4063 70.3267 12.3153C70.8523 13.2244 71.179 14.2223 71.3068 15.3089H65.9695ZM85.2069 22.9368V13.6364H90.4057V30H85.4412V26.9531H85.2708C84.9086 27.9545 84.2907 28.75 83.4171 29.3395C82.5506 29.9219 81.503 30.2131 80.2743 30.2131C79.1593 30.2131 78.1792 29.9574 77.334 29.446C76.4888 28.9347 75.8319 28.2209 75.3631 27.3047C74.8944 26.3814 74.6564 25.3018 74.6493 24.0661V13.6364H79.8588V23.0433C79.8659 23.9311 80.1003 24.6307 80.562 25.142C81.0236 25.6534 81.6522 25.9091 82.4476 25.9091C82.9661 25.9091 83.4313 25.7955 83.8432 25.5682C84.2623 25.3338 84.5925 24.9964 84.834 24.5561C85.0826 24.1087 85.2069 23.5689 85.2069 22.9368ZM101.349 36.4773C99.794 36.4773 98.4624 36.2607 97.3544 35.8274C96.2464 35.3942 95.3764 34.8011 94.7443 34.0483C94.1122 33.2955 93.7322 32.4432 93.6044 31.4915L98.5369 31.2145C98.6293 31.5483 98.7997 31.8395 99.0483 32.0881C99.304 32.3366 99.6342 32.5284 100.039 32.6634C100.451 32.7983 100.934 32.8658 101.488 32.8658C102.362 32.8658 103.082 32.6527 103.651 32.2266C104.226 31.8075 104.513 31.0724 104.513 30.0213V27.1449H104.332C104.126 27.6491 103.814 28.1001 103.395 28.4979C102.976 28.8956 102.454 29.2081 101.829 29.4354C101.211 29.6626 100.501 29.7763 99.6982 29.7763C98.505 29.7763 97.4112 29.4993 96.4169 28.9453C95.4297 28.3842 94.6378 27.5178 94.0412 26.3459C93.4517 25.1669 93.157 23.6506 93.157 21.7969C93.157 19.8864 93.4624 18.3132 94.0732 17.0774C94.6839 15.8345 95.483 14.9148 96.4702 14.3182C97.4645 13.7216 98.5334 13.4233 99.6768 13.4233C100.536 13.4233 101.271 13.5724 101.882 13.8707C102.5 14.1619 103.008 14.5384 103.406 15C103.803 15.4616 104.105 15.9411 104.311 16.4382H104.46V13.6364H109.648V30.0639C109.648 31.4489 109.3 32.6172 108.604 33.5689C107.908 34.5206 106.935 35.2415 105.685 35.7315C104.435 36.2287 102.99 36.4773 101.349 36.4773ZM101.509 25.9837C102.141 25.9837 102.681 25.8168 103.129 25.483C103.576 25.1491 103.92 24.6697 104.162 24.0447C104.403 23.4197 104.524 22.6705 104.524 21.7969C104.524 20.9091 104.403 20.1456 104.162 19.5064C103.928 18.8601 103.583 18.3629 103.129 18.0149C102.681 17.6669 102.141 17.4929 101.509 17.4929C100.863 17.4929 100.316 17.6705 99.8686 18.0256C99.4212 18.3807 99.0803 18.8814 98.8459 19.5277C98.6186 20.1669 98.505 20.9233 98.505 21.7969C98.505 22.6705 98.6222 23.4197 98.8565 24.0447C99.0909 24.6697 99.4283 25.1491 99.8686 25.483C100.316 25.8168 100.863 25.9837 101.509 25.9837ZM118.179 8.18182V30H112.97V8.18182H118.179ZM126.108 30.277C125.064 30.277 124.137 30.103 123.327 29.755C122.525 29.3999 121.889 28.8672 121.42 28.157C120.959 27.4396 120.728 26.5412 120.728 25.4616C120.728 24.5526 120.888 23.7855 121.207 23.1605C121.527 22.5355 121.967 22.0277 122.528 21.6371C123.089 21.2464 123.736 20.9517 124.467 20.7528C125.199 20.5469 125.98 20.4084 126.811 20.3374C127.741 20.2521 128.491 20.1634 129.059 20.071C129.627 19.9716 130.039 19.8331 130.295 19.6555C130.558 19.4709 130.689 19.2116 130.689 18.8778V18.8246C130.689 18.2777 130.501 17.8551 130.124 17.5568C129.748 17.2585 129.24 17.1094 128.601 17.1094C127.912 17.1094 127.358 17.2585 126.939 17.5568C126.52 17.8551 126.254 18.267 126.14 18.7926L121.335 18.6222C121.477 17.6278 121.843 16.7401 122.433 15.9588C123.029 15.1705 123.846 14.5526 124.883 14.1051C125.927 13.6506 127.18 13.4233 128.643 13.4233C129.688 13.4233 130.65 13.5476 131.531 13.7962C132.411 14.0376 133.178 14.3928 133.832 14.8615C134.485 15.3232 134.989 15.8913 135.344 16.5661C135.707 17.2408 135.888 18.0114 135.888 18.8778V30H130.987V27.7202H130.859C130.568 28.2741 130.195 28.7429 129.741 29.1264C129.293 29.5099 128.764 29.7976 128.153 29.9893C127.55 30.1811 126.868 30.277 126.108 30.277ZM127.717 26.8679C128.278 26.8679 128.782 26.7543 129.229 26.527C129.684 26.2997 130.046 25.9872 130.316 25.5895C130.586 25.1847 130.721 24.7159 130.721 24.1832V22.6278C130.572 22.706 130.391 22.777 130.178 22.8409C129.972 22.9048 129.744 22.9652 129.496 23.022C129.247 23.0788 128.991 23.1286 128.729 23.1712C128.466 23.2138 128.214 23.2528 127.972 23.2884C127.482 23.3665 127.063 23.4872 126.715 23.6506C126.374 23.8139 126.112 24.027 125.927 24.2898C125.749 24.5455 125.661 24.8509 125.661 25.206C125.661 25.7457 125.852 26.1577 126.236 26.4418C126.626 26.7259 127.12 26.8679 127.717 26.8679ZM139.073 30V13.6364H144.283V30H139.073ZM141.683 11.7294C140.952 11.7294 140.323 11.4879 139.798 11.005C139.272 10.5149 139.009 9.92543 139.009 9.23651C139.009 8.55469 139.272 7.9723 139.798 7.48935C140.323 6.99929 140.952 6.75426 141.683 6.75426C142.422 6.75426 143.05 6.99929 143.569 7.48935C144.094 7.9723 144.357 8.55469 144.357 9.23651C144.357 9.92543 144.094 10.5149 143.569 11.005C143.05 11.4879 142.422 11.7294 141.683 11.7294Z" fill="black"/>
<path fill-rule="evenodd" clip-rule="evenodd" d="M11.7 0H27.3C33.7526 0 39 5.24745 39 11.7V27.3C39 33.7526 33.7526 39 27.3 39H1.95C1.43283 39 0.936838 38.7946 0.571142 38.4289C0.205446 38.0632 0 37.5672 0 37.05V11.7C0 5.24745 5.24745 0 11.7 0ZM23.4062 14.393C23.5341 14.6771 23.6122 15.0074 23.6406 15.3838H29.6278C29.6988 14.29 29.5461 13.2851 29.1697 12.3689C28.8004 11.4527 28.2429 10.6608 27.4971 9.99316C26.7514 9.31845 25.853 8.79998 24.8018 8.43777C23.7507 8.06845 22.5824 7.88379 21.2968 7.88379C19.8267 7.88379 18.4062 8.13237 17.0355 8.62953C15.6647 9.11959 14.4112 9.84757 13.2748 10.8135C12.1385 11.7723 11.1761 12.9477 10.3878 14.3398C9.60651 15.7318 9.06674 17.3298 8.76844 19.1338C8.39202 21.4349 8.51276 23.42 9.13066 25.089C9.75566 26.7581 10.7961 28.0436 12.2521 28.9456C13.7081 29.8476 15.4943 30.2986 17.6108 30.2986C19.5213 30.2986 21.2755 29.9257 22.8736 29.18C24.4716 28.4271 25.8068 27.3476 26.8792 25.9413C27.9588 24.528 28.6619 22.827 28.9886 20.8383L29.4787 17.8128H19.8054L19.1236 22.0315H23.069C22.9595 22.6403 22.7168 23.173 22.3409 23.6295C21.9432 24.1125 21.414 24.4854 20.7535 24.7481C20.093 25.0109 19.3082 25.1423 18.3991 25.1423C17.3835 25.1423 16.5774 24.9008 15.9808 24.4179C15.3913 23.9349 15.0078 23.2389 14.8302 22.3298C14.6527 21.4207 14.6704 20.327 14.8835 19.0486C15.0895 17.7844 15.4659 16.7048 16.0128 15.8099C16.5667 14.915 17.2521 14.2297 18.0689 13.7538C18.8856 13.278 19.7912 13.04 20.7855 13.04C21.2471 13.04 21.6484 13.0933 21.9893 13.1998C22.3373 13.2993 22.6285 13.452 22.8629 13.6579C23.0973 13.8568 23.2784 14.1018 23.4062 14.393Z" fill="black"/>
</svg>
