<svg width="29" height="29" viewBox="0 0 29 29" fill="none" xmlns="http://www.w3.org/2000/svg">
<circle cx="14.5" cy="14.5" r="14.5" fill="#FFDB2B"/>
<g clip-path="url(#clip0_1_1562)">
<path d="M15.7083 19.9375H13.2917M18.125 12.0834C18.125 11.122 17.7431 10.1999 17.0632 9.52011C16.3834 8.84029 15.4614 8.45837 14.5 8.45837C13.5386 8.45837 12.6165 8.84029 11.9367 9.52011C11.2569 10.1999 10.875 11.122 10.875 12.0834C10.875 13.9504 10.404 15.2286 9.87791 16.0741C9.43413 16.7873 9.21223 17.1439 9.22037 17.2434C9.22938 17.3536 9.25271 17.3956 9.34148 17.4614C9.42164 17.5209 9.78301 17.5209 10.5058 17.5209H18.4942C19.217 17.5209 19.5783 17.5209 19.6585 17.4614C19.7473 17.3956 19.7706 17.3536 19.7796 17.2434C19.7877 17.1439 19.5658 16.7873 19.1221 16.0741C18.596 15.2286 18.125 13.9504 18.125 12.0834Z" stroke="black" stroke-width="2" stroke-linecap="round" stroke-linejoin="round"/>
</g>
<defs>
<clipPath id="clip0_1_1562">
<rect width="14.5" height="14.5" fill="white" transform="translate(7.25 7.25)"/>
</clipPath>
</defs>
</svg>
